<svg width="1109" height="1150" viewBox="0 0 1109 1150" fill="none" xmlns="http://www.w3.org/2000/svg">
    <path d="M489.534 764.706L487.681 761.161L479.158 765.617L488.326 768.52L489.534 764.706ZM510.402 778.914L507.211 781.326L507.224 781.343L507.237 781.36L510.402 778.914ZM501.966 834.636L504.238 837.929L504.248 837.922L501.966 834.636ZM375.426 845.514H371.426V849.514H375.426V845.514ZM375.426 690.114V686.114H371.426V690.114H375.426ZM494.862 700.992L492.524 704.238L492.535 704.246L492.546 704.254L494.862 700.992ZM504.63 750.72L501.238 748.6L501.219 748.631L501.2 748.662L504.63 750.72ZM411.168 717.198V713.198H407.168V717.198H411.168ZM411.168 753.828H407.168V757.828H411.168V753.828ZM467.112 721.86L464.869 725.172L464.906 725.197L464.943 725.222L467.112 721.86ZM474.438 813.768L472.291 810.394L472.267 810.409L472.243 810.424L474.438 813.768ZM411.168 780.024V776.024H407.168V780.024H411.168ZM411.168 818.43H407.168V822.43H411.168V818.43ZM488.326 768.52C496.511 771.112 502.736 775.403 507.211 781.326L513.593 776.503C508.004 769.106 500.317 763.925 490.742 760.893L488.326 768.52ZM507.237 781.36C511.64 787.058 513.95 794.222 513.95 803.112H521.95C521.95 792.763 519.228 783.795 513.567 776.469L507.237 781.36ZM513.95 803.112C513.95 815.495 509.202 824.741 499.684 831.351L504.248 837.922C516.042 829.731 521.95 817.962 521.95 803.112H513.95ZM499.694 831.344C490.142 837.937 475.694 841.514 455.79 841.514V849.514C476.438 849.514 492.774 845.84 504.238 837.929L499.694 831.344ZM455.79 841.514H375.426V849.514H455.79V841.514ZM379.426 845.514V690.114H371.426V845.514H379.426ZM375.426 694.114H451.35V686.114H375.426V694.114ZM451.35 694.114C469.87 694.114 483.414 697.674 492.524 704.238L497.2 697.747C486.182 689.807 470.718 686.114 451.35 686.114V694.114ZM492.546 704.254C501.711 710.762 506.18 719.394 506.18 730.518H514.18C514.18 716.779 508.437 705.727 497.178 697.731L492.546 704.254ZM506.18 730.518C506.18 737.38 504.508 743.368 501.238 748.6L508.022 752.84C512.152 746.233 514.18 738.753 514.18 730.518H506.18ZM501.2 748.662C498.051 753.91 493.584 758.076 487.681 761.161L491.387 768.251C498.508 764.529 504.105 759.371 508.06 752.778L501.2 748.662ZM407.168 717.198V753.828H415.168V717.198H407.168ZM411.168 757.828H446.91V749.828H411.168V757.828ZM446.91 757.828C456.149 757.828 463.816 756.231 469.355 752.478L464.869 745.855C461.232 748.318 455.431 749.828 446.91 749.828V757.828ZM469.355 752.478C475.159 748.546 477.994 742.649 477.994 735.402H469.994C469.994 740.292 468.241 743.57 464.869 745.855L469.355 752.478ZM477.994 735.402C477.994 728.155 475.153 722.288 469.281 718.499L464.943 725.222C468.247 727.353 469.994 730.514 469.994 735.402H477.994ZM469.355 718.549C463.816 714.796 456.149 713.198 446.91 713.198V721.198C455.431 721.198 461.232 722.709 464.869 725.172L469.355 718.549ZM446.91 713.198H411.168V721.198H446.91V713.198ZM453.126 822.43C462.908 822.43 470.94 820.849 476.633 817.113L472.243 810.424C468.464 812.904 462.288 814.43 453.126 814.43V822.43ZM476.586 817.143C482.784 813.199 485.764 807.016 485.764 799.338H477.764C477.764 804.685 475.86 808.122 472.291 810.394L476.586 817.143ZM485.764 799.338C485.764 791.755 482.861 785.597 476.841 781.537C471.101 777.666 462.996 776.024 453.126 776.024V784.024C462.348 784.024 468.562 785.602 472.368 788.169C475.894 790.547 477.764 794.046 477.764 799.338H485.764ZM453.126 776.024H411.168V784.024H453.126V776.024ZM407.168 780.024V818.43H415.168V780.024H407.168ZM411.168 822.43H453.126V814.43H411.168V822.43ZM823.888 718.974V714.974H819.888V718.974H823.888ZM823.888 816.654H819.888V820.654H823.888V816.654ZM850.75 816.654H854.75V812.654H850.75V816.654ZM850.75 845.514V849.514H854.75V845.514H850.75ZM760.84 845.514H756.84V849.514H760.84V845.514ZM760.84 816.654V812.654H756.84V816.654H760.84ZM787.924 816.654V820.654H791.924V816.654H787.924ZM787.924 718.974H791.924V714.974H787.924V718.974ZM760.84 718.974H756.84V722.974H760.84V718.974ZM760.84 690.114V686.114H756.84V690.114H760.84ZM850.75 690.114H854.75V686.114H850.75V690.114ZM850.75 718.974V722.974H854.75V718.974H850.75ZM819.888 718.974V816.654H827.888V718.974H819.888ZM823.888 820.654H850.75V812.654H823.888V820.654ZM846.75 816.654V845.514H854.75V816.654H846.75ZM850.75 841.514H760.84V849.514H850.75V841.514ZM764.84 845.514V816.654H756.84V845.514H764.84ZM760.84 820.654H787.924V812.654H760.84V820.654ZM791.924 816.654V718.974H783.924V816.654H791.924ZM787.924 714.974H760.84V722.974H787.924V714.974ZM764.84 718.974V690.114H756.84V718.974H764.84ZM760.84 694.114H850.75V686.114H760.84V694.114ZM846.75 690.114V718.974H854.75V690.114H846.75ZM850.75 714.974H823.888V722.974H850.75V714.974Z" fill="black"/>
    <path d="M576.272 850.95C569.668 850.95 563.687 849.323 558.328 846.069C553.016 842.815 548.877 838.293 545.91 832.503C542.943 826.665 541.46 820.134 541.46 812.908V809.822C541.46 802.357 542.896 795.634 545.767 789.652C548.686 783.671 552.729 778.981 557.897 775.584C563.065 772.138 568.664 770.416 574.693 770.416C584.12 770.416 591.584 773.646 597.087 780.106C602.638 786.518 605.414 795.299 605.414 806.448V811.257H550.001V812.908C550.001 821.713 552.514 829.058 557.538 834.944C562.61 840.781 568.975 843.7 576.631 843.7C581.225 843.7 585.268 842.863 588.761 841.188C592.302 839.513 595.508 836.834 598.379 833.149L603.763 837.24C597.446 846.38 588.283 850.95 576.272 850.95ZM574.693 777.737C568.233 777.737 562.778 780.106 558.328 784.843C553.925 789.58 551.246 795.945 550.289 803.936H596.872V803.003C596.633 795.538 594.503 789.461 590.484 784.771C586.464 780.082 581.201 777.737 574.693 777.737ZM671.162 849.514C670.3 847.074 669.75 843.461 669.511 838.676C666.496 842.6 662.644 845.638 657.955 847.792C653.313 849.897 648.384 850.95 643.168 850.95C635.704 850.95 629.65 848.868 625.009 844.705C620.415 840.542 618.118 835.279 618.118 828.914C618.118 821.354 621.252 815.372 627.521 810.97C633.837 806.568 642.618 804.366 653.863 804.366H669.439V795.538C669.439 789.987 667.716 785.633 664.271 782.474C660.874 779.268 655.897 777.665 649.341 777.665C643.36 777.665 638.407 779.197 634.483 782.259C630.56 785.322 628.598 789.006 628.598 793.313L619.984 793.241C619.984 787.068 622.855 781.733 628.598 777.235C634.34 772.689 641.398 770.416 649.772 770.416C658.433 770.416 665.252 772.593 670.229 776.948C675.253 781.254 677.837 787.283 677.98 795.035V831.785C677.98 839.298 678.77 844.921 680.349 848.653V849.514H671.162ZM644.173 843.342C649.916 843.342 655.036 841.954 659.534 839.178C664.08 836.403 667.381 832.695 669.439 828.053V810.97H654.079C645.513 811.066 638.814 812.645 633.981 815.707C629.148 818.722 626.731 822.885 626.731 828.197C626.731 832.551 628.334 836.164 631.541 839.035C634.794 841.906 639.005 843.342 644.173 843.342ZM736.838 779.173C735.02 778.838 733.082 778.67 731.024 778.67C725.665 778.67 721.119 780.177 717.386 783.192C713.702 786.159 711.07 790.49 709.491 796.184V849.514H700.949V771.851H709.347L709.491 784.197C714.037 775.01 721.334 770.416 731.383 770.416C733.775 770.416 735.666 770.727 737.053 771.349L736.838 779.173ZM875.863 771.851L876.15 785.13C879.069 780.345 882.706 776.708 887.061 774.22C891.415 771.684 896.224 770.416 901.488 770.416C909.814 770.416 916.011 772.76 920.078 777.45C924.146 782.139 926.203 789.174 926.251 798.552V849.514H917.709V798.481C917.662 791.542 916.178 786.374 913.259 782.977C910.388 779.579 905.771 777.881 899.406 777.881C894.095 777.881 889.381 779.555 885.266 782.905C881.199 786.207 878.184 790.681 876.222 796.327V849.514H867.681V771.851H875.863ZM961.853 751.969V771.851H977.931V778.885H961.853V830.637C961.853 834.944 962.618 838.15 964.149 840.255C965.729 842.361 968.336 843.413 971.973 843.413C973.409 843.413 975.729 843.174 978.936 842.696L979.294 849.73C977.045 850.543 973.983 850.95 970.107 850.95C964.221 850.95 959.938 849.251 957.259 845.854C954.579 842.408 953.239 837.36 953.239 830.709V778.885H938.956V771.851H953.239V751.969H961.853Z" fill="black"/>
    <path d="M4 549.554H276.5" stroke="black" stroke-width="7"/>
    <path d="M166.5 938.514C185.967 958.662 347.271 977.103 550.273 978.161C584.95 978.161 618.552 977.662 650.5 976.728" stroke="black" stroke-width="7"/>
    <path d="M60.9999 793.014C66.8123 804.846 123.146 815.034 214 822.605" stroke="black" stroke-width="7"/>
    <path d="M13 650.014C13.8777 652.348 35.4832 658.732 73 664.536" stroke="black" stroke-width="7"/>
    <path d="M166 162.014C192.364 132.875 344.257 120.645 549.836 121.948C754.924 120.462 908.483 134.741 936 164.014" stroke="black" stroke-width="7"/>
    <path d="M61 306.514C72.8917 282.236 283.521 265.663 549.617 266.106C586.865 266.106 623.139 266.46 658 267.13M1039 307.014C1026.5 281.514 918.175 274.272 754.5 269.916" stroke="black" stroke-width="7"/>
    <path d="M13.5 449.014C28.3954 430.588 187.581 421.619 412.84 419.514M1086.5 452.014C1045.33 438 999.991 430.671 928.295 427.558" stroke="black" stroke-width="7"/>
    <path d="M723.5 1067.51L699.649 1015.81C654.084 970.257 571.713 931.251 571.713 931.251L423.476 886.679C383 869.22 293.672 867.377 274.045 853.184C254.417 838.991 176.371 804.425 108.408 779.31C96.6055 735.311 40.9973 695.865 60.1359 676.2C119.01 615.706 195.899 636.729 230.041 604.552C278.065 555.889 328.644 473.909 328.644 473.909C328.644 473.909 338.027 450.442 421.615 416.683C505.203 382.923 539.086 374.722 615.573 354.998C615.573 354.998 620.731 333.458 626.15 320.453C636.572 295.443 644.222 275.687 664.363 262.637C684.505 249.587 697.695 247.306 723.045 248.019C723.045 248.019 733.595 245.243 752.896 267.749C772.197 290.255 767.675 325.046 763.129 363.518C935.013 426.728 914.429 431.452 1090 472.514" stroke="black" stroke-width="7"/>
    <circle cx="550.054" cy="550.055" r="546.054" stroke="black" stroke-width="7"/>
    <path d="M550.054 1096.11C437.133 1096.11 337.555 1000.9 278.643 856.014M865.588 402.514C826.968 172.612 700.326 4 550.054 4C369.108 4 222.422 248.477 222.422 550.054C222.422 569.803 223.051 589.308 224.277 608.514" stroke="black" stroke-width="7"/>
    <path d="M334.203 466.014C350.372 204.336 440.855 4 550.054 4C626.527 4 693.821 102.251 732.841 251.014M374.503 875.014C414.3 1009.16 478.116 1096.11 550.054 1096.11C597.015 1096.11 640.513 1059.06 676.129 996.014" stroke="black" stroke-width="7"/>
    <path d="M466.133 899.514C486.166 1019.65 516.325 1096.11 550.054 1096.11C577.814 1096.11 603.155 1044.32 622.424 959.014M645.225 282.014C626.488 116.052 590.888 4 550.054 4C499.638 4 457.2 174.816 444.629 407.014" stroke="black" stroke-width="7"/>
    <path d="M992.121 447.514C952.773 194.953 770.792 4 552.238 4C304.945 4 104.474 248.477 104.474 550.054C104.474 581.394 106.639 612.118 110.796 642.014M718.5 1057.23C667.096 1082.31 610.988 1096.11 552.238 1096.11C378.153 1096.11 226.577 973.454 152.5 796.514" stroke="black" stroke-width="7"/>
    <path d="M550.554 4V372.014M550.554 1096.11L550.554 925.014" stroke="black" stroke-width="7"/>
</svg>
